<svg xmlns="http://www.w3.org/2000/svg" width="146" height="149.928" viewBox="0 0 146 149.928"><g transform="translate(-640 -204.072)"><g transform="translate(661.73 204.072)"><path d="M101.3,239.307H22.16a9.9,9.9,0,0,1-9.9-9.9V187.825l-4.948-4.219v50.753a9.9,9.9,0,0,0,9.9,9.9H96.35a9.9,9.9,0,0,0,9.019-5.824,9.859,9.859,0,0,1-4.071.876Zm0,0" transform="translate(-5.304 -138.186)" fill="#e14f17" opacity="0.1"/><g transform="translate(20.06 0)"><path d="M134.861,140.6H153.59a1.732,1.732,0,1,0,0-3.463H134.861a1.732,1.732,0,0,0,0,3.463Zm0,0" transform="translate(-120.053 -103.215)" fill="#84371e"/><path d="M168.08,197.141H134.861a1.732,1.732,0,0,0,0,3.463H168.08a1.732,1.732,0,0,0,0-3.463Zm0,0" transform="translate(-120.053 -148.373)" fill="#84371e"/><path d="M168.08,257.141H134.861a1.732,1.732,0,1,0,0,3.463H168.08a1.732,1.732,0,1,0,0-3.463Zm0,0" transform="translate(-120.053 -193.53)" fill="#84371e"/><path d="M121.436.549l-.014-.012A1.72,1.72,0,0,0,120.169,0a1.654,1.654,0,0,0-.2.013l-.03,0c-.059,0-.116-.008-.173-.008H89.846A9.589,9.589,0,0,0,80.27,9.576V56.494l3.463,2.934V9.576a6.121,6.121,0,0,1,6.113-6.113h28.592V15.09a9.586,9.586,0,0,0,9.576,9.576H139.64V59.418l3.463-2.937V22.89a1.73,1.73,0,0,0-.509-1.225ZM128.014,21.2A6.119,6.119,0,0,1,121.9,15.09V5.905l15.328,15.3Zm0,0" transform="translate(-80.27 0)" fill="#84371e"/></g><path d="M101.787,120.6l-18.893-16v4.537l15.38,13.024-15.38,13.044-3.463,2.937L56.772,157.362a8.139,8.139,0,0,1-10.556,0L23.523,138.153,20.06,135.22,4.681,122.2,20.06,109.153v-4.545L1.269,120.547a1.735,1.735,0,0,0-1,1.568v53.716A11.639,11.639,0,0,0,11.9,187.458H91.058a11.639,11.639,0,0,0,11.627-11.627V122.115a1.73,1.73,0,0,0-.9-1.518Zm-2.566,55.234a8.113,8.113,0,0,1-.969,3.857l-23.6-24.005a1.733,1.733,0,1,0-2.471,2.429L95.991,182.33a8.11,8.11,0,0,1-4.933,1.665H11.9a8.116,8.116,0,0,1-4.943-1.672l23.674-24.216a1.732,1.732,0,0,0-2.476-2.42L4.7,179.675a8.083,8.083,0,0,1-.965-3.844v-49.9l16.958,14.359,23.285,19.718a11.588,11.588,0,0,0,15.033,0L82.263,140.28,99.221,125.9Zm0,0" transform="translate(0 -78.726)" fill="#ee800f"/></g><ellipse cx="73" cy="8" rx="73" ry="8" transform="translate(640 338)" fill="#030504" opacity="0.1"/></g></svg>