<svg xmlns="http://www.w3.org/2000/svg" width="146" height="156" viewBox="0 0 146 156"><g transform="translate(29)"><g transform="translate(2.597 2.597)"><path d="M246.311,41.6H231.9v7.765l3.246.026h21.192A10.291,10.291,0,0,0,246.311,41.6Zm0,0" transform="translate(-174.271 -33.394)" fill="#e14f17" opacity="0.1"/><path d="M10,51.99v82.689a10.385,10.385,0,0,0,10.388,10.388h.338a10.628,10.628,0,0,1-.338-2.6V59.781A10.385,10.385,0,0,1,30.776,49.393l3.636-.026V41.6H20.388A10.385,10.385,0,0,0,10,51.99Zm0,0" transform="translate(-10 -33.395)" fill="#e14f17" opacity="0.1"/><path d="M104,10V25.945h7.791V15.194h25.814V10Zm0,0" transform="translate(-79.588 -10)" fill="#e14f17" opacity="0.1"/></g><path d="M94.669,140.8a25.97,25.97,0,1,0,25.97,25.97A25.97,25.97,0,0,0,94.669,140.8Zm0,46.746a20.776,20.776,0,1,1,20.776-20.776A20.776,20.776,0,0,1,94.669,187.547Zm0,0" transform="translate(-50.858 -104.235)" fill="#84371e"/><path d="M74.638,8.207H63.211V2.6a2.6,2.6,0,0,0-2.6-2.6h-33.6a2.6,2.6,0,0,0-2.6,2.6v5.61H12.985A12.989,12.989,0,0,0,0,21.192v82.689a12.991,12.991,0,0,0,12.985,12.985H74.638a12.989,12.989,0,0,0,12.985-12.985V21.192A12.988,12.988,0,0,0,74.638,8.207ZM29.606,5.194H58.017V15.945H29.606Zm52.823,98.687a7.813,7.813,0,0,1-7.791,7.791H12.985a7.814,7.814,0,0,1-7.791-7.791V21.192A7.813,7.813,0,0,1,12.985,13.4H24.412v5.168a2.6,2.6,0,0,0,2.6,2.6h33.6a2.6,2.6,0,0,0,2.6-2.6V13.4H74.638a7.813,7.813,0,0,1,7.791,7.791Zm0,0" fill="#ee800f"/><path d="M138.1,205.671l-13.686,13.09-7.012-7.012a2.589,2.589,0,0,0-3.662,3.661l8.8,8.8a2.552,2.552,0,0,0,1.843.753,2.516,2.516,0,0,0,1.793-.727l15.53-14.828a2.587,2.587,0,0,0,.077-3.662,2.642,2.642,0,0,0-3.688-.078Zm0,0" transform="translate(-83.639 -151.731)" fill="#84371e"/></g><ellipse cx="73" cy="8" rx="73" ry="8" transform="translate(0 140)" fill="#030504" opacity="0.1"/></svg>